HIERARCHY
ROOT Hips
{
	OFFSET 234.239197 91.082298 198.650101
	CHANNELS 6 Xposition Yposition Zposition Zrotation Yrotation Xrotation 
	JOINT RightUpLeg
	{
		OFFSET 0.103457 1.857824 10.548509
		CHANNELS 3 Xrotation Yrotation Zrotation
		JOINT RightLeg
		{
			OFFSET 43.500000 -0.000023 0.000006
			CHANNELS 3 Xrotation Yrotation Zrotation
			JOINT RightFoot
			{
				OFFSET 42.372192 0.000011 -0.000009
				CHANNELS 3 Xrotation Yrotation Zrotation
				JOINT RightToe
				{
					OFFSET 17.300005 0.000002 -0.000010
					CHANNELS 3 Xrotation Yrotation Zrotation
					End Site
					{
						OFFSET 0.000000 0.000000 0.000000
					}
				}
			}
		}
	}
	JOINT LeftUpLeg
	{
		OFFSET 0.103458 1.857836 -10.548506
		CHANNELS 3 Xrotation Yrotation Zrotation
		JOINT LeftLeg
		{
			OFFSET 43.500038 -0.000023 0.000017
			CHANNELS 3 Xrotation Yrotation Zrotation
			JOINT LeftFoot
			{
				OFFSET 42.372269 -0.000019 0.000007
				CHANNELS 3 Xrotation Yrotation Zrotation
				JOINT LeftToe
				{
					OFFSET 17.299999 -0.000003 0.000008
					CHANNELS 3 Xrotation Yrotation Zrotation
					End Site
					{
						OFFSET 0.000000 0.000000 0.000000
					}
				}
			}
		}
	}
	JOINT Spine
	{
		OFFSET 6.901969 -2.603729 0.000003
		CHANNELS 3 Xrotation Yrotation Zrotation
		JOINT Spine1
		{
			OFFSET 12.588093 -0.000007 0.000001
			CHANNELS 3 Xrotation Yrotation Zrotation
			JOINT Spine2
			{
				OFFSET 12.343206 0.000014 -0.000007
				CHANNELS 3 Xrotation Yrotation Zrotation
				JOINT Neck
				{
					OFFSET 25.832899 -0.000010 0.000002
					CHANNELS 3 Xrotation Yrotation Zrotation
					JOINT Head
					{
						OFFSET 11.766599 0.000010 -0.000001
						CHANNELS 3 Xrotation Yrotation Zrotation
						End Site
						{
							OFFSET 0.000000 0.000000 0.000000
						}
					}
				}
				JOINT RightShoulder
				{
					OFFSET 19.745895 -1.480371 6.000111
					CHANNELS 3 Xrotation Yrotation Zrotation
					JOINT RightArm
					{
						OFFSET 11.284124 -0.000010 -0.000007
						CHANNELS 3 Xrotation Yrotation Zrotation
						JOINT RightForeArm
						{
							OFFSET 33.000061 0.000006 0.000028
							CHANNELS 3 Xrotation Yrotation Zrotation
							JOINT RightHand
							{
								OFFSET 25.200001 0.000019 0.000008
								CHANNELS 3 Xrotation Yrotation Zrotation
								End Site
								{
									OFFSET 0.000000 0.000000 0.000000
								}
							}
						}
					}
				}
				JOINT LeftShoulder
				{
					OFFSET 19.746101 -1.480375 -6.000078
					CHANNELS 3 Xrotation Yrotation Zrotation
					JOINT LeftArm
					{
						OFFSET 11.284128 -0.000010 -0.000011
						CHANNELS 3 Xrotation Yrotation Zrotation
						JOINT LeftForeArm
						{
							OFFSET 33.000095 0.000022 0.000002
							CHANNELS 3 Xrotation Yrotation Zrotation
							JOINT LeftHand
							{
								OFFSET 25.199768 0.000129 0.000422
								CHANNELS 3 Xrotation Yrotation Zrotation
								End Site
								{
									OFFSET 0.000000 0.000000 0.000000
								}
							}
						}
					}
				}
			}
		}
	}
}
MOTION
Frames: 14
Frame Time: 0.033333
-293.358612 90.231750 164.883804 88.579330 5.433011 -101.545495 165.000213 5.678890 170.624519 -22.202998 3.130763 -8.949758 88.282504 5.943452 -0.581139 21.454557 0.003120 0.000018 143.173005 5.615208 -177.008710 -72.942882 -1.558106 3.761198 70.564508 0.578476 9.588051 21.454546 -0.003088 -0.000003 6.991990 -0.560782 -0.794294 3.978989 -1.094204 -1.607242 3.660963 -1.104027 -1.600620 -14.270482 -11.913223 5.784064 -22.043331 5.178318 -0.533979 151.669227 -77.955886 27.373388 37.403810 56.074101 40.414062 -53.337630 -13.471513 1.789254 3.507555 -10.600666 4.648848 161.786390 87.017115 -16.647013 22.177722 -58.037873 -76.296860 -31.603729 13.093710 -1.138682 12.346753 -1.948927 3.259131 
-293.107208 90.110619 162.146698 88.621165 5.849593 -101.708094 166.485055 5.848688 170.784167 -22.139688 3.262542 -9.163711 89.902529 5.983564 -1.112677 21.454562 0.003095 0.000015 140.902226 4.577604 -177.809345 -66.696476 -1.081428 5.067103 71.337118 -0.299325 10.073953 21.454545 -0.003087 -0.000003 6.974406 -0.403639 -0.976377 3.942696 -0.774124 -1.965812 3.624784 -0.786118 -1.961109 -14.436409 -10.763505 5.889451 -22.115989 4.686054 0.160251 150.531195 -78.271885 28.508445 36.740271 55.832838 39.067839 -54.783441 -13.199019 1.820700 3.200994 -10.719562 3.608998 166.516897 87.068356 -11.894233 23.436957 -57.290090 -76.493816 -32.729081 13.856961 -1.211335 12.155058 -1.954582 2.517709 
-292.888092 89.836960 159.342300 88.351120 6.180593 -101.714105 168.032298 6.370704 170.883574 -22.084573 3.346346 -9.243502 91.580624 5.980444 -1.425231 21.454560 0.003104 0.000016 139.638163 4.054707 -178.370841 -58.529216 -0.613015 5.686553 71.390585 -0.699417 10.314161 21.454551 -0.003089 0.000000 6.985300 -0.344512 -1.145147 3.964349 -0.650002 -2.301312 3.646504 -0.664032 -2.297357 -14.813056 -9.729313 5.945120 -22.128694 4.249988 0.725395 149.549300 -78.487172 29.490735 35.214789 55.256326 37.110419 -56.204329 -12.933089 1.852674 2.723797 -9.492237 4.153862 168.646250 87.089666 -9.754968 24.534437 -57.083081 -76.504191 -33.963621 14.654946 -1.289579 11.669084 -1.283818 1.757654 
-292.675903 89.443199 156.518707 87.863950 6.541250 -101.616911 169.519886 7.013393 170.705893 -22.065046 3.360000 -9.067348 93.382128 5.832822 -1.622342 21.454560 0.003102 0.000016 139.306626 3.831408 -178.058510 -48.501143 -0.849191 4.793788 70.632824 -0.056359 10.123227 21.454550 -0.003086 -0.000002 6.972436 -0.365472 -1.286425 3.939881 -0.687365 -2.584464 3.622095 -0.703103 -2.580259 -14.989929 -9.151988 6.021458 -22.050559 4.264453 0.987725 148.507847 -78.518304 30.544367 33.396917 54.472668 35.014435 -57.464130 -12.823294 1.890286 2.345455 -7.888651 5.532852 171.819433 87.041834 -6.569356 25.183269 -57.304461 -76.520399 -35.056301 15.392091 -1.361827 11.485405 -0.234104 1.528346 
-292.434601 88.964760 153.670898 87.238618 7.001957 -101.532196 170.875678 7.606596 170.216469 -22.128025 3.272213 -8.644784 95.241210 5.520274 -1.958438 21.454562 0.003112 0.000017 139.889186 3.734107 -176.702103 -36.705782 -1.498176 2.637363 69.591015 1.641284 10.230486 21.454555 -0.003097 -0.000001 6.905256 -0.431940 -1.384976 3.807720 -0.818574 -2.783300 3.490002 -0.835500 -2.778310 -14.754624 -8.709841 6.189021 -22.005879 4.060795 1.422059 148.131244 -78.530715 30.925392 31.469571 53.898597 32.989260 -58.303533 -12.959099 1.929890 2.168990 -6.528675 6.788657 177.289103 87.005784 -1.075598 25.073420 -57.925011 -76.221721 -35.876754 15.916286 -1.414783 11.183130 0.448543 1.500338 
-292.169891 88.517929 150.766403 86.806104 7.506982 -101.493715 172.361039 7.979001 169.605222 -21.989690 3.230886 -8.126069 96.801266 5.155379 -2.327057 21.454560 0.003106 0.000015 141.449352 3.420505 -174.332478 -23.861040 -1.682426 -0.145394 68.685448 3.283847 8.940013 21.454553 -0.003072 0.000004 6.821845 -0.479294 -1.434479 3.642468 -0.913763 -2.883211 3.324770 -0.931274 -2.877657 -14.328342 -8.106100 6.418693 -21.974448 3.857038 1.989627 148.101000 -78.544102 30.955083 29.843668 53.813131 30.918439 -58.653300 -13.027975 1.947330 2.107939 -6.311256 7.645276 -179.376668 87.008400 2.274341 24.301984 -58.878730 -75.571453 -36.441781 16.233020 -1.448714 11.009685 0.895473 1.592355 
-291.846802 87.955994 147.723694 86.264729 7.760653 -101.206915 173.940493 8.628099 169.787219 -22.303704 3.320911 -7.936508 98.086434 4.992199 -2.971455 21.454558 0.003111 0.000017 143.504269 3.031914 -173.133384 -13.140132 -1.678293 -1.474037 69.474936 5.392853 12.450955 21.454551 -0.003086 -0.000000 6.755300 -0.550510 -1.486103 3.511694 -1.056270 -2.988106 3.194012 -1.074429 -2.981676 -13.523705 -7.593998 6.691109 -22.017422 3.510555 2.652143 148.078105 -78.377541 30.989108 28.580554 54.160822 29.261982 -58.503931 -13.347211 1.963469 2.107552 -6.892092 7.717158 -178.569750 86.899978 3.083227 23.141005 -59.759080 -74.671835 -36.855772 16.603258 -1.482689 10.826498 0.784568 1.519396 
-291.332794 87.491226 144.761902 86.206618 7.881331 -100.660616 175.270919 8.561598 169.566140 -23.448687 3.578356 -7.383207 98.941355 4.567569 -3.962851 21.454557 0.003106 0.000016 144.468473 2.339002 -174.861531 -10.716038 -1.876010 -0.565857 71.395496 5.588953 15.731877 21.454551 -0.003094 0.000000 6.711432 -0.540903 -1.469735 3.423565 -1.038671 -2.954708 3.105855 -1.056637 -2.948393 -12.395570 -6.941086 6.913708 -21.581301 2.981889 3.418896 148.586189 -78.298174 30.479248 26.961777 54.983976 27.389439 -57.827817 -13.448556 1.945680 2.285269 -7.633723 7.193575 -176.461407 86.682996 5.199028 21.543791 -60.697555 -73.275007 -37.139078 16.996123 -1.515056 10.602258 0.355624 1.167881 
-290.726898 87.098747 141.769897 86.727946 7.791660 -100.050995 176.134214 7.685802 168.978853 -26.152624 3.926444 -6.649346 99.292932 4.000592 -5.156747 21.454558 0.003100 0.000016 144.277801 1.851396 -173.511448 -14.990845 -1.556065 -1.808046 66.982975 4.157987 7.648630 21.454551 -0.003094 -0.000000 6.724209 -0.384787 -1.365571 3.444367 -0.729314 -2.741876 3.126651 -0.745981 -2.737436 -11.519273 -6.987966 7.386034 -20.728051 3.195894 3.882580 151.510029 -78.289821 27.514411 24.944623 56.145361 25.915734 -56.850178 -13.733141 1.929635 2.473310 -8.311580 6.618463 -171.025669 86.144559 10.661527 18.746520 -61.333179 -70.815797 -37.223947 17.377931 -1.541897 10.367831 0.172267 0.672224 
-289.904510 87.431702 138.672394 88.824288 7.281730 -99.022799 176.992263 4.948392 168.596458 -29.831531 4.120114 -5.991081 97.006465 3.355440 -6.496446 21.454557 0.003113 0.000017 145.796672 -0.498391 -174.583009 -17.098829 -1.896620 -0.663145 64.775622 1.103316 1.584212 21.454555 -0.003094 -0.000002 6.929146 0.155542 -1.228346 3.841699 0.351324 -2.450910 3.523919 0.336389 -2.452991 -11.172743 -7.272490 7.965405 -19.618366 2.743698 4.609154 158.055468 -77.750782 20.898014 22.145032 57.538634 23.650281 -55.702426 -13.896069 1.899783 2.614276 -8.590080 6.670013 -170.666388 85.152324 11.019326 14.717531 -61.592863 -66.267691 -37.045956 17.927309 -1.573109 10.085945 0.353965 0.134200 
-288.890900 87.709686 135.280197 90.476886 6.597748 -97.286981 176.000888 1.863006 168.775450 -36.965281 3.910352 -5.141603 91.860758 2.384962 -7.508161 21.454560 0.003112 0.000017 147.117931 -2.157099 -179.487795 -21.151832 -0.998538 3.445372 67.537819 -2.460992 0.061466 21.454551 -0.003091 0.000001 7.081469 0.643160 -1.212033 4.136459 1.328818 -2.400677 3.818571 1.314150 -2.408662 -10.431553 -8.409405 8.534415 -18.905871 3.209635 4.722709 162.330811 -76.507824 16.608283 20.456287 58.609676 22.674240 -54.119366 -14.418473 1.879582 2.598391 -8.812660 6.656055 -169.352382 83.541075 12.340839 9.123987 -61.197156 -60.156836 -35.913538 17.760454 -1.534908 10.187214 2.057098 0.900681 
-287.941010 87.970261 131.967499 91.824312 6.058960 -95.464509 172.722575 -1.501598 168.985287 -46.528130 3.824421 -3.958814 82.940428 0.903836 -8.006975 21.454565 0.003102 0.000017 148.687850 -2.496007 -177.548527 -24.243056 -0.593478 3.495114 71.226975 -2.570736 -0.228013 21.454555 -0.003092 -0.000001 7.093379 1.032706 -1.147346 4.153852 2.105519 -2.257658 3.835800 2.091721 -2.270319 -7.961202 -9.689914 8.624837 -19.080337 3.304151 4.629640 162.357476 -76.053685 16.602443 20.270582 60.311165 23.620331 -51.510251 -14.973144 1.828200 2.758782 -8.735270 6.173763 -167.201255 81.841922 14.517451 2.282107 -60.534266 -54.041795 -33.891542 17.105857 -1.446043 10.781468 3.686275 3.164560 
-287.143585 88.198898 128.562897 92.855834 5.482795 -93.757597 168.495098 -4.542493 169.073943 -56.935173 4.547313 -2.615084 74.908310 -0.817662 -8.570077 21.454563 0.003112 0.000020 150.549076 -2.373602 -173.894799 -26.747817 -0.508222 2.529416 74.473569 -2.120530 -1.100563 21.454551 -0.003098 -0.000000 7.007875 1.356120 -1.060335 3.979157 2.747523 -2.074526 3.660888 2.734813 -2.091094 -4.317873 -11.043910 8.467928 -18.939809 3.046315 4.602416 162.042113 -76.515891 16.902235 20.949869 62.227183 26.467193 -48.831147 -15.210543 1.756831 3.441058 -7.859544 6.285505 -169.441899 81.344493 12.246282 -2.663968 -60.300660 -49.261968 -32.969313 17.519930 -1.452372 11.381516 3.534937 2.908110 
-286.526306 88.409683 125.142899 92.931957 4.677114 -92.433899 164.142628 -5.861611 170.094455 -66.513195 4.964982 -2.981541 69.889234 -0.579406 -7.415763 21.454562 0.003113 0.000016 152.526976 -1.819900 -171.981049 -29.301375 -0.606372 2.144254 77.822281 -1.825060 -1.213597 21.454553 -0.003085 0.000001 7.008252 1.442196 -0.892173 3.982876 2.913933 -1.735303 3.664486 2.903261 -1.752874 -2.627569 -12.333076 8.173621 -16.838518 3.261936 4.155322 161.489919 -76.825442 17.450022 21.714923 63.144457 29.215776 -47.699125 -15.119879 1.715204 3.569159 -5.636590 9.152840 -169.934383 81.155932 11.746210 -6.943570 -59.792173 -44.980354 -34.244912 19.091842 -1.581915 11.261997 3.142386 -0.385396 
